<?xml version="1.0" encoding="utf-8"?>
<!-- Generator: Adobe Illustrator 21.1.0, SVG Export Plug-In . SVG Version: 6.00 Build 0)  -->
<svg version="1.1" id="Layer_1" xmlns="http://www.w3.org/2000/svg" xmlns:xlink="http://www.w3.org/1999/xlink" x="0px" y="0px"
	 viewBox="0 0 720 720" style="enable-background:new 0 0 720 720;" xml:space="preserve">
<style type="text/css">
	.st0{fill:#EAEAEA;}
	.st1{opacity:0.15;fill:#010101;}
	.st2{fill:#FFFFFF;}
	.st3{opacity:0.1;fill:#010101;}
	.st4{fill:#EA0A8C;}
	.st5{fill:#272828;}
	.st6{opacity:0.2;}
	.st7{fill:#010101;}
</style>
<g>
	<path d="M511,492.2c0,10.4-8.5,18.9-18.9,18.9H227.8c-10.4,0-18.9-8.5-18.9-18.9V227.8c0-10.4,8.5-18.9,18.9-18.9h264.3
		c10.4,0,18.9,8.5,18.9,18.9V492.2z"/>
	<path class="st0" d="M492.2,482.7c0,5.2-4.2,9.4-9.4,9.4H237.3c-5.2,0-9.4-4.2-9.4-9.4V237.3c0-5.2,4.2-9.4,9.4-9.4h245.4
		c5.2,0,9.4,4.2,9.4,9.4V482.7z"/>
	<path class="st1" d="M482.7,492.2H237.3c-5.2,0-9.4-4.2-9.4-9.4v9.4c0,5.2,4.2,9.4,9.4,9.4h245.4c5.2,0,9.4-4.2,9.4-9.4v-9.4
		C492.2,488,487.9,492.2,482.7,492.2z"/>
	<path class="st2" d="M227.8,360L209,445c0,5.2,4.2,9.4,9.4,9.4h283.2c5.2,0,9.4-4.2,9.4-9.4l-18.9-85H227.8z"/>
	<path class="st3" d="M501.6,454.4H218.4c-3.7,0-6.7-2.1-8.3-5.2l-1.1,5.2c0,5.2,4.2,9.4,9.4,9.4h283.2c5.2,0,9.4-4.2,9.4-9.4
		l-1.1-5.2C508.3,452.3,505.3,454.4,501.6,454.4z"/>
	<g>
		<path class="st4" d="M473.3,341.1c-5.2,0-9.4,4.2-9.4,9.4v18.9c0,5.2,4.2,9.4,9.4,9.4c5.2,0,9.4-4.2,9.4-9.4v-18.9
			C482.7,345.4,478.5,341.1,473.3,341.1z"/>
		<path class="st4" d="M246.7,341.1c-5.2,0-9.4,4.2-9.4,9.4v18.9c0,5.2,4.2,9.4,9.4,9.4c5.2,0,9.4-4.2,9.4-9.4v-18.9
			C256.2,345.4,251.9,341.1,246.7,341.1z"/>
	</g>
	<g>
		<path class="st5" d="M341.1,388.3v-85c0-0.6-0.2-1.1-0.3-1.7c-0.1-0.5,0-1.1-0.2-1.6c0-0.1-0.1-0.1-0.1-0.2
			c-0.3-0.7-0.7-1.3-1.2-1.9c-0.3-0.4-0.5-0.9-0.8-1.2c-0.4-0.5-1-0.7-1.5-1.1c-0.5-0.3-0.9-0.7-1.4-1c-0.5-0.2-1-0.3-1.5-0.4
			c-0.7-0.2-1.3-0.4-2.1-0.4c-0.1,0-0.2,0-0.2,0c-0.6,0-1.1,0.2-1.7,0.3c-0.5,0.1-1.1,0.1-1.6,0.2l-27.8,10.2
			c-4.9,1.8-6.9,8.3-5.1,13.2c1.8,4.9,8.3,5.5,13.2,3.7l13.5-4.7v71.5c-5.2,0-9.4,4.2-9.4,9.4c0,5.2,4.2,9.4,9.4,9.4h18.9
			c5.2,0,9.4-4.2,9.4-9.4C350.6,392.6,346.3,388.3,341.1,388.3z"/>
		<path class="st5" d="M435.5,303.4c0-5.2-4.2-9.4-9.4-9.4h-47.2c-5.2,0-9.4,4.2-9.4,9.4c0,5.2,4.2,9.4,9.4,9.4h32.7l-41.1,80.7
			c-2.4,4.7-0.5,10.3,4.1,12.7c4.6,2.4,10.3,0.5,12.7-4.1l47.1-92.5c0.8-1.6,1-3.3,0.8-5C435.3,304.2,435.5,303.8,435.5,303.4z"/>
	</g>
	<g class="st6">
		<path class="st7" d="M473.3,378.9c-5.2,0-9.4-4.2-9.4-9.4v9.4c0,5.2,4.2,9.4,9.4,9.4c5.2,0,9.4-4.2,9.4-9.4v-9.4
			C482.7,374.7,478.5,378.9,473.3,378.9z"/>
		<path class="st7" d="M246.7,378.9c-5.2,0-9.4-4.2-9.4-9.4v9.4c0,5.2,4.2,9.4,9.4,9.4c5.2,0,9.4-4.2,9.4-9.4v-9.4
			C256.2,374.7,251.9,378.9,246.7,378.9z"/>
	</g>
</g>
</svg>
